# xmcd CD database file
#
# Track frame offsets:
#	150
#	80487
#	178013
#
# Disc length: 3012 seconds
#
# Revision: 0
# Processed by: cddbd v1.5.1PL0 Copyright (c) Steve Scherf et al.
# Submitted via: CDex 1.51
#
DISCID=1c0bc203
DTITLE=Brecker Brothers - Live at the Royal Festival Hall [CD2]
DYEAR=1992
DGENRE=Jazz
TTITLE0=Bass Solo > Walkie Talkie
TTITLE1=Song For Barry
TTITLE2=Drum Solo > Inside Out
EXTD=YEAR: 1992
EXTT0=
EXTT1=
EXTT2=
PLAYORDER=
